<svg xmlns="http://www.w3.org/2000/svg" xmlns:xlink="http://www.w3.org/1999/xlink" width="100" zoomAndPan="magnify" viewBox="0 0 75 74.999997" height="100" preserveAspectRatio="xMidYMid meet" version="1.0"><defs><g/><clipPath id="edd89e1c1e"><path d="M 16.832031 0 L 36.179688 0 L 36.179688 19.351562 L 16.832031 19.351562 Z M 16.832031 0 " clip-rule="nonzero"/></clipPath><clipPath id="cec518e95c"><path d="M 20.550781 4.113281 L 39.835938 4.113281 L 39.835938 22.5625 L 20.550781 22.5625 Z M 20.550781 4.113281 " clip-rule="nonzero"/></clipPath></defs><g clip-path="url(#edd89e1c1e)"><path fill="#ff7f00" d="M 35.609375 9.269531 L 26.90625 0.566406 C 26.554688 0.21875 26.070312 0 25.539062 0 L 18.765625 0 C 17.695312 0 16.832031 0.867188 16.832031 1.933594 L 16.832031 8.707031 C 16.832031 9.246094 17.046875 9.726562 17.402344 10.078125 L 26.109375 18.785156 C 26.457031 19.132812 26.941406 19.351562 27.472656 19.351562 C 28.003906 19.351562 28.492188 19.132812 28.84375 18.785156 L 35.613281 12.011719 C 35.960938 11.660156 36.179688 11.175781 36.179688 10.640625 C 36.179688 10.105469 35.960938 9.621094 35.609375 9.269531 Z M 20.214844 4.835938 C 19.414062 4.835938 18.765625 4.1875 18.765625 3.386719 C 18.765625 2.582031 19.414062 1.933594 20.214844 1.933594 C 21.019531 1.933594 21.667969 2.582031 21.667969 3.386719 C 21.667969 4.1875 21.019531 4.835938 20.214844 4.835938 Z M 20.214844 4.835938 " fill-opacity="1" fill-rule="nonzero"/></g><g clip-path="url(#cec518e95c)"><path fill="#231f20" d="M 21.074219 4.121094 C 21.105469 4.121094 21.132812 4.121094 21.164062 4.128906 L 24.117188 4.632812 C 24.304688 4.664062 24.464844 4.792969 24.535156 4.96875 C 24.535156 4.96875 24.535156 4.96875 24.535156 4.972656 L 25.902344 8.480469 L 39.277344 8.8125 C 39.433594 8.816406 39.578125 8.886719 39.675781 9.003906 C 39.777344 9.117188 39.824219 9.273438 39.804688 9.425781 L 39.066406 15.527344 C 39.039062 15.78125 38.824219 15.984375 38.566406 16.003906 L 29.035156 16.761719 L 27.144531 18.246094 C 27.140625 18.25 27.140625 18.25 27.136719 18.253906 C 27.136719 18.253906 27.132812 18.253906 27.128906 18.253906 C 27.128906 18.257812 27.125 18.257812 27.125 18.261719 C 26.777344 18.519531 26.695312 18.867188 26.742188 19.0625 C 26.769531 19.171875 26.8125 19.253906 26.914062 19.316406 C 27.015625 19.378906 27.1875 19.425781 27.484375 19.410156 C 27.488281 19.410156 27.488281 19.410156 27.488281 19.410156 C 27.5 19.410156 27.507812 19.410156 27.519531 19.410156 C 27.519531 19.410156 27.523438 19.410156 27.523438 19.410156 L 38.894531 19.441406 L 38.898438 19.441406 C 39.195312 19.441406 39.449219 19.691406 39.445312 19.988281 C 39.445312 20.289062 39.191406 20.535156 38.894531 20.53125 L 38.0625 20.53125 C 38.371094 20.726562 38.578125 21.070312 38.578125 21.460938 C 38.578125 22.070312 38.078125 22.566406 37.46875 22.566406 C 36.863281 22.566406 36.363281 22.070312 36.363281 21.460938 C 36.363281 21.070312 36.570312 20.722656 36.882812 20.527344 L 27.519531 20.5 C 27.855469 20.691406 28.085938 21.050781 28.085938 21.460938 C 28.085938 22.070312 27.585938 22.566406 26.980469 22.566406 C 26.371094 22.566406 25.871094 22.070312 25.871094 21.460938 C 25.871094 20.933594 26.25 20.488281 26.746094 20.382812 C 26.273438 20.214844 25.914062 19.871094 25.691406 19.347656 C 25.6875 19.34375 25.683594 19.335938 25.683594 19.328125 C 25.511719 18.644531 25.816406 17.898438 26.441406 17.414062 C 26.445312 17.414062 26.445312 17.410156 26.445312 17.410156 C 26.449219 17.410156 26.449219 17.40625 26.449219 17.40625 C 26.457031 17.398438 26.460938 17.394531 26.46875 17.386719 L 27.808594 16.339844 L 23.632812 5.652344 L 20.980469 5.203125 C 20.703125 5.15625 20.5 4.898438 20.523438 4.617188 C 20.546875 4.335938 20.792969 4.113281 21.074219 4.117188 Z M 26.308594 9.324219 L 27.078125 11.296875 L 28.082031 11.296875 L 28.082031 9.367188 Z M 28.464844 9.378906 L 28.464844 11.296875 L 30.316406 11.296875 L 30.316406 9.425781 Z M 30.699219 9.433594 L 30.699219 11.296875 L 32.554688 11.296875 L 32.554688 9.480469 Z M 32.9375 9.488281 L 32.9375 11.296875 L 34.789062 11.296875 L 34.789062 9.535156 Z M 35.171875 9.546875 L 35.171875 11.296875 L 37.027344 11.296875 L 37.027344 9.589844 Z M 37.410156 9.601562 L 37.410156 11.296875 L 38.769531 11.296875 L 38.96875 9.640625 Z M 38.722656 11.675781 L 37.410156 11.675781 L 37.410156 13.40625 L 38.511719 13.40625 Z M 37.027344 11.675781 L 35.171875 11.675781 L 35.171875 13.40625 L 37.027344 13.40625 Z M 34.789062 11.675781 L 32.9375 11.675781 L 32.9375 13.40625 L 34.789062 13.40625 Z M 32.554688 11.675781 L 30.699219 11.675781 L 30.699219 13.40625 L 32.554688 13.40625 Z M 30.316406 11.675781 L 28.464844 11.675781 L 28.464844 13.40625 L 30.316406 13.40625 Z M 28.082031 11.675781 L 27.226562 11.675781 L 27.902344 13.40625 L 28.082031 13.40625 Z M 38.464844 13.789062 L 37.410156 13.789062 L 37.410156 15.03125 L 38.324219 14.960938 Z M 37.027344 13.789062 L 35.171875 13.789062 L 35.171875 15.210938 L 37.027344 15.0625 Z M 34.789062 13.789062 L 32.9375 13.789062 L 32.9375 15.386719 L 34.789062 15.242188 Z M 32.554688 13.789062 L 30.699219 13.789062 L 30.699219 15.566406 L 32.554688 15.417969 Z M 30.316406 13.789062 L 28.464844 13.789062 L 28.464844 14.84375 L 28.816406 15.742188 C 28.859375 15.722656 28.910156 15.707031 28.960938 15.703125 L 30.316406 15.597656 Z M 28.082031 13.789062 L 28.050781 13.789062 L 28.082031 13.867188 Z M 37.46875 20.8125 C 37.109375 20.8125 36.820312 21.101562 36.820312 21.460938 C 36.820312 21.824219 37.109375 22.109375 37.46875 22.109375 C 37.832031 22.109375 38.121094 21.824219 38.121094 21.460938 C 38.121094 21.101562 37.832031 20.8125 37.46875 20.8125 Z M 26.980469 20.8125 C 26.617188 20.8125 26.328125 21.101562 26.328125 21.460938 C 26.328125 21.824219 26.617188 22.109375 26.980469 22.109375 C 27.339844 22.109375 27.628906 21.824219 27.628906 21.460938 C 27.628906 21.101562 27.339844 20.8125 26.980469 20.8125 Z M 37.46875 21.121094 C 37.664062 21.121094 37.824219 21.277344 37.824219 21.472656 C 37.824219 21.671875 37.664062 21.824219 37.46875 21.824219 C 37.273438 21.824219 37.117188 21.671875 37.117188 21.472656 C 37.117188 21.277344 37.273438 21.121094 37.46875 21.121094 Z M 26.980469 21.121094 C 27.175781 21.121094 27.332031 21.277344 27.332031 21.472656 C 27.332031 21.671875 27.175781 21.824219 26.980469 21.824219 C 26.78125 21.824219 26.625 21.671875 26.625 21.472656 C 26.625 21.277344 26.78125 21.121094 26.980469 21.121094 Z M 26.980469 21.121094 " fill-opacity="1" fill-rule="nonzero"/></g><g fill="#231f20" fill-opacity="1"><g transform="translate(-0.538868, 30.813809)"><g><path d="M 0.421875 -5.78125 L 2.53125 -5.78125 C 3.113281 -5.78125 3.585938 -5.625 3.953125 -5.3125 C 4.316406 -5.007812 4.5 -4.566406 4.5 -3.984375 C 4.5 -3.410156 4.3125 -2.957031 3.9375 -2.625 C 3.570312 -2.300781 3.101562 -2.140625 2.53125 -2.140625 L 1.734375 -2.140625 L 1.734375 0 L 0.421875 0 Z M 1.734375 -3.1875 L 2.109375 -3.1875 C 2.398438 -3.1875 2.640625 -3.242188 2.828125 -3.359375 C 3.015625 -3.484375 3.109375 -3.679688 3.109375 -3.953125 C 3.109375 -4.234375 3.015625 -4.429688 2.828125 -4.546875 C 2.640625 -4.660156 2.398438 -4.71875 2.109375 -4.71875 L 1.734375 -4.71875 Z M 1.734375 -3.1875 "/></g></g></g><g fill="#231f20" fill-opacity="1"><g transform="translate(4.122079, 30.813809)"><g><path d="M 3.71875 -5.78125 L 3.71875 -4.625 L 1.734375 -4.625 L 1.734375 -3.46875 L 3.640625 -3.46875 L 3.640625 -2.3125 L 1.734375 -2.3125 L 1.734375 -1.15625 L 3.71875 -1.15625 L 3.71875 0 L 0.421875 0 L 0.421875 -5.78125 Z M 3.71875 -5.78125 "/></g></g></g><g fill="#231f20" fill-opacity="1"><g transform="translate(8.181163, 30.813809)"><g><path d="M 3.5 -1.1875 C 3.695312 -1.1875 3.890625 -1.21875 4.078125 -1.28125 C 4.265625 -1.34375 4.40625 -1.398438 4.5 -1.453125 L 4.625 -1.546875 L 5.1875 -0.421875 C 5.164062 -0.410156 5.140625 -0.394531 5.109375 -0.375 C 5.078125 -0.351562 5 -0.304688 4.875 -0.234375 C 4.757812 -0.171875 4.632812 -0.113281 4.5 -0.0625 C 4.363281 -0.0195312 4.1875 0.015625 3.96875 0.046875 C 3.75 0.0859375 3.523438 0.109375 3.296875 0.109375 C 2.753906 0.109375 2.242188 -0.0195312 1.765625 -0.28125 C 1.285156 -0.550781 0.894531 -0.914062 0.59375 -1.375 C 0.300781 -1.84375 0.15625 -2.34375 0.15625 -2.875 C 0.15625 -3.28125 0.238281 -3.671875 0.40625 -4.046875 C 0.582031 -4.421875 0.816406 -4.738281 1.109375 -5 C 1.398438 -5.269531 1.734375 -5.484375 2.109375 -5.640625 C 2.492188 -5.796875 2.890625 -5.875 3.296875 -5.875 C 3.660156 -5.875 4 -5.828125 4.3125 -5.734375 C 4.632812 -5.648438 4.859375 -5.566406 4.984375 -5.484375 L 5.1875 -5.34375 L 4.625 -4.234375 C 4.59375 -4.253906 4.539062 -4.285156 4.46875 -4.328125 C 4.40625 -4.367188 4.273438 -4.421875 4.078125 -4.484375 C 3.890625 -4.546875 3.695312 -4.578125 3.5 -4.578125 C 3.175781 -4.578125 2.890625 -4.523438 2.640625 -4.421875 C 2.390625 -4.328125 2.1875 -4.191406 2.03125 -4.015625 C 1.882812 -3.847656 1.773438 -3.664062 1.703125 -3.46875 C 1.628906 -3.28125 1.59375 -3.085938 1.59375 -2.890625 C 1.59375 -2.453125 1.753906 -2.054688 2.078125 -1.703125 C 2.410156 -1.359375 2.882812 -1.1875 3.5 -1.1875 Z M 3.5 -1.1875 "/></g></g></g><g fill="#231f20" fill-opacity="1"><g transform="translate(13.450972, 30.813809)"><g><path d="M 0.0625 -4.625 L 0.0625 -5.78125 L 4.109375 -5.78125 L 4.109375 -4.625 L 2.75 -4.625 L 2.75 0 L 1.421875 0 L 1.421875 -4.625 Z M 0.0625 -4.625 "/></g></g></g><g fill="#231f20" fill-opacity="1"><g transform="translate(17.62203, 30.813809)"><g><path d="M 0.15625 -2.890625 C 0.15625 -3.722656 0.441406 -4.425781 1.015625 -5 C 1.585938 -5.582031 2.273438 -5.875 3.078125 -5.875 C 3.878906 -5.875 4.5625 -5.585938 5.125 -5.015625 C 5.695312 -4.441406 5.984375 -3.734375 5.984375 -2.890625 C 5.984375 -2.046875 5.703125 -1.332031 5.140625 -0.75 C 4.585938 -0.175781 3.898438 0.109375 3.078125 0.109375 C 2.234375 0.109375 1.535156 -0.175781 0.984375 -0.75 C 0.429688 -1.320312 0.15625 -2.035156 0.15625 -2.890625 Z M 1.578125 -2.890625 C 1.578125 -2.585938 1.625 -2.3125 1.71875 -2.0625 C 1.8125 -1.8125 1.972656 -1.597656 2.203125 -1.421875 C 2.441406 -1.253906 2.734375 -1.171875 3.078125 -1.171875 C 3.566406 -1.171875 3.9375 -1.335938 4.1875 -1.671875 C 4.4375 -2.003906 4.5625 -2.410156 4.5625 -2.890625 C 4.5625 -3.359375 4.429688 -3.757812 4.171875 -4.09375 C 3.921875 -4.4375 3.554688 -4.609375 3.078125 -4.609375 C 2.597656 -4.609375 2.226562 -4.4375 1.96875 -4.09375 C 1.707031 -3.757812 1.578125 -3.359375 1.578125 -2.890625 Z M 1.578125 -2.890625 "/></g></g></g><g fill="#231f20" fill-opacity="1"><g transform="translate(23.759645, 30.813809)"><g><path d="M 0.421875 -5.78125 L 2.53125 -5.78125 C 3.113281 -5.78125 3.585938 -5.625 3.953125 -5.3125 C 4.316406 -5.007812 4.5 -4.566406 4.5 -3.984375 C 4.5 -3.410156 4.3125 -2.957031 3.9375 -2.625 C 3.570312 -2.300781 3.101562 -2.140625 2.53125 -2.140625 L 1.734375 -2.140625 L 1.734375 0 L 0.421875 0 Z M 1.734375 -3.1875 L 2.109375 -3.1875 C 2.398438 -3.1875 2.640625 -3.242188 2.828125 -3.359375 C 3.015625 -3.484375 3.109375 -3.679688 3.109375 -3.953125 C 3.109375 -4.234375 3.015625 -4.429688 2.828125 -4.546875 C 2.640625 -4.660156 2.398438 -4.71875 2.109375 -4.71875 L 1.734375 -4.71875 Z M 1.734375 -3.1875 "/></g></g></g><g fill="#231f20" fill-opacity="1"><g transform="translate(28.420592, 30.813809)"><g><path d="M 2.546875 -5.875 C 2.859375 -5.875 3.160156 -5.828125 3.453125 -5.734375 C 3.753906 -5.648438 3.976562 -5.5625 4.125 -5.46875 L 4.34375 -5.328125 L 3.8125 -4.28125 C 3.769531 -4.3125 3.707031 -4.347656 3.625 -4.390625 C 3.550781 -4.429688 3.410156 -4.488281 3.203125 -4.5625 C 3.003906 -4.644531 2.816406 -4.6875 2.640625 -4.6875 C 2.421875 -4.6875 2.25 -4.640625 2.125 -4.546875 C 2.007812 -4.453125 1.953125 -4.328125 1.953125 -4.171875 C 1.953125 -4.085938 1.976562 -4.007812 2.03125 -3.9375 C 2.09375 -3.875 2.191406 -3.800781 2.328125 -3.71875 C 2.460938 -3.644531 2.578125 -3.582031 2.671875 -3.53125 C 2.773438 -3.488281 2.9375 -3.421875 3.15625 -3.328125 C 3.53125 -3.171875 3.847656 -2.957031 4.109375 -2.6875 C 4.378906 -2.414062 4.515625 -2.101562 4.515625 -1.75 C 4.515625 -1.425781 4.453125 -1.140625 4.328125 -0.890625 C 4.210938 -0.640625 4.050781 -0.441406 3.84375 -0.296875 C 3.632812 -0.160156 3.398438 -0.0625 3.140625 0 C 2.890625 0.0703125 2.617188 0.109375 2.328125 0.109375 C 2.078125 0.109375 1.828125 0.0820312 1.578125 0.03125 C 1.335938 -0.0195312 1.132812 -0.0820312 0.96875 -0.15625 C 0.8125 -0.238281 0.664062 -0.316406 0.53125 -0.390625 C 0.40625 -0.460938 0.3125 -0.523438 0.25 -0.578125 L 0.15625 -0.65625 L 0.8125 -1.765625 C 0.875 -1.710938 0.953125 -1.648438 1.046875 -1.578125 C 1.148438 -1.515625 1.328125 -1.421875 1.578125 -1.296875 C 1.828125 -1.171875 2.046875 -1.109375 2.234375 -1.109375 C 2.785156 -1.109375 3.0625 -1.300781 3.0625 -1.6875 C 3.0625 -1.757812 3.039062 -1.828125 3 -1.890625 C 2.96875 -1.960938 2.898438 -2.03125 2.796875 -2.09375 C 2.691406 -2.164062 2.601562 -2.222656 2.53125 -2.265625 C 2.457031 -2.304688 2.332031 -2.363281 2.15625 -2.4375 C 1.976562 -2.519531 1.847656 -2.582031 1.765625 -2.625 C 1.410156 -2.800781 1.140625 -3.019531 0.953125 -3.28125 C 0.765625 -3.539062 0.671875 -3.816406 0.671875 -4.109375 C 0.671875 -4.628906 0.859375 -5.050781 1.234375 -5.375 C 1.617188 -5.707031 2.054688 -5.875 2.546875 -5.875 Z M 2.546875 -5.875 "/></g></g></g><g fill="#231f20" fill-opacity="1"><g transform="translate(33.123529, 30.813809)"><g><path d="M 0.0625 -4.625 L 0.0625 -5.78125 L 4.109375 -5.78125 L 4.109375 -4.625 L 2.75 -4.625 L 2.75 0 L 1.421875 0 L 1.421875 -4.625 Z M 0.0625 -4.625 "/></g></g></g><g fill="#231f20" fill-opacity="1"><g transform="translate(37.294587, 30.813809)"><g><path d="M 0.15625 -2.890625 C 0.15625 -3.722656 0.441406 -4.425781 1.015625 -5 C 1.585938 -5.582031 2.273438 -5.875 3.078125 -5.875 C 3.878906 -5.875 4.5625 -5.585938 5.125 -5.015625 C 5.695312 -4.441406 5.984375 -3.734375 5.984375 -2.890625 C 5.984375 -2.046875 5.703125 -1.332031 5.140625 -0.75 C 4.585938 -0.175781 3.898438 0.109375 3.078125 0.109375 C 2.234375 0.109375 1.535156 -0.175781 0.984375 -0.75 C 0.429688 -1.320312 0.15625 -2.035156 0.15625 -2.890625 Z M 1.578125 -2.890625 C 1.578125 -2.585938 1.625 -2.3125 1.71875 -2.0625 C 1.8125 -1.8125 1.972656 -1.597656 2.203125 -1.421875 C 2.441406 -1.253906 2.734375 -1.171875 3.078125 -1.171875 C 3.566406 -1.171875 3.9375 -1.335938 4.1875 -1.671875 C 4.4375 -2.003906 4.5625 -2.410156 4.5625 -2.890625 C 4.5625 -3.359375 4.429688 -3.757812 4.171875 -4.09375 C 3.921875 -4.4375 3.554688 -4.609375 3.078125 -4.609375 C 2.597656 -4.609375 2.226562 -4.4375 1.96875 -4.09375 C 1.707031 -3.757812 1.578125 -3.359375 1.578125 -2.890625 Z M 1.578125 -2.890625 "/></g></g></g><g fill="#231f20" fill-opacity="1"><g transform="translate(43.432204, 30.813809)"><g><path d="M 0.421875 -5.78125 L 2.484375 -5.78125 C 3.035156 -5.78125 3.488281 -5.628906 3.84375 -5.328125 C 4.195312 -5.035156 4.375 -4.613281 4.375 -4.0625 C 4.375 -3.632812 4.265625 -3.273438 4.046875 -2.984375 C 3.835938 -2.703125 3.550781 -2.503906 3.1875 -2.390625 L 5.171875 0 L 3.5 0 L 1.734375 -2.28125 L 1.734375 0 L 0.421875 0 Z M 1.734375 -3.21875 L 1.890625 -3.21875 C 2.015625 -3.21875 2.117188 -3.21875 2.203125 -3.21875 C 2.285156 -3.226562 2.378906 -3.242188 2.484375 -3.265625 C 2.585938 -3.296875 2.671875 -3.335938 2.734375 -3.390625 C 2.804688 -3.441406 2.863281 -3.515625 2.90625 -3.609375 C 2.957031 -3.710938 2.984375 -3.832031 2.984375 -3.96875 C 2.984375 -4.101562 2.957031 -4.21875 2.90625 -4.3125 C 2.863281 -4.414062 2.804688 -4.492188 2.734375 -4.546875 C 2.671875 -4.597656 2.585938 -4.640625 2.484375 -4.671875 C 2.378906 -4.703125 2.285156 -4.71875 2.203125 -4.71875 C 2.117188 -4.71875 2.015625 -4.71875 1.890625 -4.71875 L 1.734375 -4.71875 Z M 1.734375 -3.21875 "/></g></g></g><g fill="#231f20" fill-opacity="1"><g transform="translate(48.443072, 30.813809)"><g><path d="M 3.71875 -5.78125 L 3.71875 -4.625 L 1.734375 -4.625 L 1.734375 -3.46875 L 3.640625 -3.46875 L 3.640625 -2.3125 L 1.734375 -2.3125 L 1.734375 -1.15625 L 3.71875 -1.15625 L 3.71875 0 L 0.421875 0 L 0.421875 -5.78125 Z M 3.71875 -5.78125 "/></g></g></g><g fill="#231f20" fill-opacity="1"><g transform="translate(52.502159, 30.813809)"><g><path d="M 2.546875 -5.875 C 2.859375 -5.875 3.160156 -5.828125 3.453125 -5.734375 C 3.753906 -5.648438 3.976562 -5.5625 4.125 -5.46875 L 4.34375 -5.328125 L 3.8125 -4.28125 C 3.769531 -4.3125 3.707031 -4.347656 3.625 -4.390625 C 3.550781 -4.429688 3.410156 -4.488281 3.203125 -4.5625 C 3.003906 -4.644531 2.816406 -4.6875 2.640625 -4.6875 C 2.421875 -4.6875 2.25 -4.640625 2.125 -4.546875 C 2.007812 -4.453125 1.953125 -4.328125 1.953125 -4.171875 C 1.953125 -4.085938 1.976562 -4.007812 2.03125 -3.9375 C 2.09375 -3.875 2.191406 -3.800781 2.328125 -3.71875 C 2.460938 -3.644531 2.578125 -3.582031 2.671875 -3.53125 C 2.773438 -3.488281 2.9375 -3.421875 3.15625 -3.328125 C 3.53125 -3.171875 3.847656 -2.957031 4.109375 -2.6875 C 4.378906 -2.414062 4.515625 -2.101562 4.515625 -1.75 C 4.515625 -1.425781 4.453125 -1.140625 4.328125 -0.890625 C 4.210938 -0.640625 4.050781 -0.441406 3.84375 -0.296875 C 3.632812 -0.160156 3.398438 -0.0625 3.140625 0 C 2.890625 0.0703125 2.617188 0.109375 2.328125 0.109375 C 2.078125 0.109375 1.828125 0.0820312 1.578125 0.03125 C 1.335938 -0.0195312 1.132812 -0.0820312 0.96875 -0.15625 C 0.8125 -0.238281 0.664062 -0.316406 0.53125 -0.390625 C 0.40625 -0.460938 0.3125 -0.523438 0.25 -0.578125 L 0.15625 -0.65625 L 0.8125 -1.765625 C 0.875 -1.710938 0.953125 -1.648438 1.046875 -1.578125 C 1.148438 -1.515625 1.328125 -1.421875 1.578125 -1.296875 C 1.828125 -1.171875 2.046875 -1.109375 2.234375 -1.109375 C 2.785156 -1.109375 3.0625 -1.300781 3.0625 -1.6875 C 3.0625 -1.757812 3.039062 -1.828125 3 -1.890625 C 2.96875 -1.960938 2.898438 -2.03125 2.796875 -2.09375 C 2.691406 -2.164062 2.601562 -2.222656 2.53125 -2.265625 C 2.457031 -2.304688 2.332031 -2.363281 2.15625 -2.4375 C 1.976562 -2.519531 1.847656 -2.582031 1.765625 -2.625 C 1.410156 -2.800781 1.140625 -3.019531 0.953125 -3.28125 C 0.765625 -3.539062 0.671875 -3.816406 0.671875 -4.109375 C 0.671875 -4.628906 0.859375 -5.050781 1.234375 -5.375 C 1.617188 -5.707031 2.054688 -5.875 2.546875 -5.875 Z M 2.546875 -5.875 "/></g></g></g><g fill="#231f20" fill-opacity="1"><g transform="translate(17.594305, 35.473806)"><g><path d="M 2.359375 0 L 2.046875 0 C 1.953125 0 1.878906 -0.0546875 1.828125 -0.171875 L 1.484375 -0.859375 C 1.453125 -0.921875 1.421875 -0.960938 1.390625 -0.984375 C 1.359375 -1.015625 1.316406 -1.03125 1.265625 -1.03125 L 0.8125 -1.03125 L 0.8125 -0.265625 L 1.125 -0.265625 C 1.15625 -0.265625 1.171875 -0.25 1.171875 -0.21875 L 1.171875 -0.046875 C 1.171875 -0.015625 1.15625 0 1.125 0 L 0.21875 0 C 0.1875 0 0.171875 -0.015625 0.171875 -0.046875 L 0.171875 -0.21875 C 0.171875 -0.25 0.1875 -0.265625 0.21875 -0.265625 L 0.5 -0.265625 L 0.5 -2.3125 L 0.21875 -2.3125 C 0.1875 -2.3125 0.171875 -2.328125 0.171875 -2.359375 L 0.171875 -2.53125 C 0.171875 -2.5625 0.1875 -2.578125 0.21875 -2.578125 L 1.328125 -2.578125 C 1.578125 -2.578125 1.78125 -2.507812 1.9375 -2.375 C 2.101562 -2.238281 2.1875 -2.046875 2.1875 -1.796875 C 2.1875 -1.421875 2.007812 -1.1875 1.65625 -1.09375 C 1.707031 -1.0625 1.765625 -0.984375 1.828125 -0.859375 L 2.140625 -0.265625 L 2.359375 -0.265625 C 2.378906 -0.265625 2.390625 -0.25 2.390625 -0.21875 L 2.390625 -0.046875 C 2.390625 -0.015625 2.378906 0 2.359375 0 Z M 0.8125 -1.296875 L 1.265625 -1.296875 C 1.671875 -1.296875 1.875 -1.460938 1.875 -1.796875 C 1.875 -2.140625 1.671875 -2.3125 1.265625 -2.3125 L 0.8125 -2.3125 Z M 0.8125 -1.296875 "/></g></g></g><g fill="#231f20" fill-opacity="1"><g transform="translate(20.168296, 35.473806)"><g><path d="M 2.5 -0.65625 C 2.507812 -0.644531 2.515625 -0.628906 2.515625 -0.609375 C 2.515625 -0.597656 2.507812 -0.582031 2.5 -0.5625 C 2.488281 -0.539062 2.472656 -0.507812 2.453125 -0.46875 C 2.429688 -0.4375 2.382812 -0.382812 2.3125 -0.3125 C 2.25 -0.25 2.175781 -0.191406 2.09375 -0.140625 C 2.019531 -0.0976562 1.921875 -0.0546875 1.796875 -0.015625 C 1.671875 0.015625 1.535156 0.03125 1.390625 0.03125 C 1.046875 0.03125 0.753906 -0.0859375 0.515625 -0.328125 C 0.285156 -0.578125 0.171875 -0.898438 0.171875 -1.296875 C 0.171875 -1.691406 0.285156 -2.007812 0.515625 -2.25 C 0.753906 -2.488281 1.039062 -2.609375 1.375 -2.609375 C 1.75 -2.609375 2.019531 -2.476562 2.1875 -2.21875 L 2.1875 -2.53125 C 2.175781 -2.5625 2.191406 -2.578125 2.234375 -2.578125 L 2.421875 -2.578125 C 2.453125 -2.578125 2.46875 -2.5625 2.46875 -2.53125 L 2.46875 -1.75 C 2.46875 -1.71875 2.453125 -1.703125 2.421875 -1.703125 L 2.203125 -1.703125 C 2.171875 -1.703125 2.15625 -1.71875 2.15625 -1.75 L 2.15625 -1.78125 C 2.15625 -1.894531 2.078125 -2.007812 1.921875 -2.125 C 1.773438 -2.25 1.59375 -2.3125 1.375 -2.3125 C 1.15625 -2.3125 0.953125 -2.222656 0.765625 -2.046875 C 0.585938 -1.867188 0.5 -1.617188 0.5 -1.296875 C 0.5 -0.972656 0.585938 -0.722656 0.765625 -0.546875 C 0.953125 -0.367188 1.164062 -0.28125 1.40625 -0.28125 C 1.664062 -0.28125 1.875 -0.335938 2.03125 -0.453125 C 2.144531 -0.546875 2.226562 -0.640625 2.28125 -0.734375 C 2.300781 -0.765625 2.328125 -0.769531 2.359375 -0.75 Z M 2.5 -0.65625 "/></g></g></g><g fill="#231f20" fill-opacity="1"><g transform="translate(22.875487, 35.473806)"><g/></g></g><g fill="#231f20" fill-opacity="1"><g transform="translate(24.002284, 35.473806)"><g><path d="M 1.46875 -1.359375 C 1.550781 -1.359375 1.648438 -1.316406 1.765625 -1.234375 C 1.828125 -1.179688 1.878906 -1.109375 1.921875 -1.015625 C 1.960938 -0.929688 1.984375 -0.832031 1.984375 -0.71875 C 1.984375 -0.488281 1.894531 -0.304688 1.71875 -0.171875 C 1.539062 -0.0351562 1.3125 0.03125 1.03125 0.03125 C 0.882812 0.03125 0.769531 0.015625 0.6875 -0.015625 C 0.613281 -0.046875 0.550781 -0.0703125 0.5 -0.09375 C 0.457031 -0.125 0.421875 -0.148438 0.390625 -0.171875 C 0.359375 -0.191406 0.328125 -0.210938 0.296875 -0.234375 C 0.253906 -0.273438 0.210938 -0.316406 0.171875 -0.359375 L 0.15625 -0.390625 C 0.144531 -0.398438 0.140625 -0.410156 0.140625 -0.421875 C 0.140625 -0.429688 0.144531 -0.441406 0.15625 -0.453125 L 0.3125 -0.59375 C 0.332031 -0.613281 0.351562 -0.613281 0.375 -0.59375 L 0.4375 -0.53125 C 0.539062 -0.425781 0.632812 -0.359375 0.71875 -0.328125 C 0.8125 -0.285156 0.914062 -0.265625 1.03125 -0.265625 C 1.21875 -0.265625 1.367188 -0.304688 1.484375 -0.390625 C 1.597656 -0.484375 1.65625 -0.601562 1.65625 -0.75 C 1.65625 -1.0625 1.445312 -1.21875 1.03125 -1.21875 L 0.890625 -1.21875 C 0.867188 -1.21875 0.859375 -1.226562 0.859375 -1.25 L 0.859375 -1.421875 C 0.859375 -1.453125 0.867188 -1.46875 0.890625 -1.46875 L 1.015625 -1.46875 C 1.140625 -1.46875 1.242188 -1.488281 1.328125 -1.53125 C 1.492188 -1.601562 1.578125 -1.722656 1.578125 -1.890625 C 1.578125 -2.003906 1.53125 -2.101562 1.4375 -2.1875 C 1.351562 -2.269531 1.226562 -2.3125 1.0625 -2.3125 C 0.894531 -2.3125 0.769531 -2.269531 0.6875 -2.1875 C 0.601562 -2.101562 0.5625 -2.003906 0.5625 -1.890625 C 0.5625 -1.867188 0.546875 -1.859375 0.515625 -1.859375 L 0.296875 -1.859375 C 0.265625 -1.859375 0.25 -1.867188 0.25 -1.890625 C 0.25 -2.109375 0.320312 -2.28125 0.46875 -2.40625 C 0.613281 -2.539062 0.816406 -2.609375 1.078125 -2.609375 C 1.335938 -2.609375 1.539062 -2.535156 1.6875 -2.390625 C 1.832031 -2.253906 1.90625 -2.097656 1.90625 -1.921875 C 1.90625 -1.742188 1.847656 -1.601562 1.734375 -1.5 C 1.628906 -1.40625 1.539062 -1.359375 1.46875 -1.359375 Z M 1.46875 -1.359375 "/></g></g></g><g fill="#231f20" fill-opacity="1"><g transform="translate(26.126277, 35.473806)"><g><path d="M 1.03125 0.03125 C 0.90625 0.03125 0.800781 0.0195312 0.71875 0 C 0.644531 -0.03125 0.585938 -0.0507812 0.546875 -0.0625 C 0.503906 -0.0820312 0.46875 -0.101562 0.4375 -0.125 C 0.40625 -0.15625 0.375 -0.175781 0.34375 -0.1875 C 0.320312 -0.207031 0.296875 -0.226562 0.265625 -0.25 C 0.242188 -0.28125 0.226562 -0.300781 0.21875 -0.3125 C 0.207031 -0.332031 0.191406 -0.347656 0.171875 -0.359375 C 0.160156 -0.378906 0.148438 -0.390625 0.140625 -0.390625 C 0.140625 -0.398438 0.140625 -0.410156 0.140625 -0.421875 C 0.140625 -0.429688 0.144531 -0.441406 0.15625 -0.453125 L 0.3125 -0.59375 C 0.332031 -0.613281 0.347656 -0.617188 0.359375 -0.609375 C 0.367188 -0.597656 0.390625 -0.570312 0.421875 -0.53125 C 0.460938 -0.5 0.488281 -0.472656 0.5 -0.453125 C 0.519531 -0.441406 0.550781 -0.421875 0.59375 -0.390625 C 0.632812 -0.359375 0.671875 -0.335938 0.703125 -0.328125 C 0.804688 -0.285156 0.914062 -0.265625 1.03125 -0.265625 C 1.226562 -0.265625 1.378906 -0.3125 1.484375 -0.40625 C 1.597656 -0.507812 1.65625 -0.648438 1.65625 -0.828125 C 1.65625 -1.015625 1.597656 -1.160156 1.484375 -1.265625 C 1.367188 -1.367188 1.21875 -1.421875 1.03125 -1.421875 C 0.882812 -1.421875 0.742188 -1.398438 0.609375 -1.359375 C 0.460938 -1.316406 0.382812 -1.296875 0.375 -1.296875 C 0.320312 -1.296875 0.296875 -1.320312 0.296875 -1.375 L 0.296875 -2.546875 C 0.296875 -2.578125 0.3125 -2.59375 0.34375 -2.59375 L 1.78125 -2.59375 C 1.8125 -2.59375 1.828125 -2.578125 1.828125 -2.546875 L 1.828125 -2.078125 C 1.828125 -2.046875 1.8125 -2.03125 1.78125 -2.03125 L 1.5625 -2.03125 C 1.53125 -2.03125 1.515625 -2.046875 1.515625 -2.078125 L 1.515625 -2.3125 L 0.625 -2.3125 L 0.625 -1.59375 C 0.625 -1.59375 0.640625 -1.59375 0.671875 -1.59375 C 0.703125 -1.601562 0.734375 -1.613281 0.765625 -1.625 C 0.867188 -1.644531 0.976562 -1.65625 1.09375 -1.65625 C 1.375 -1.65625 1.59375 -1.578125 1.75 -1.421875 C 1.90625 -1.273438 1.984375 -1.070312 1.984375 -0.8125 C 1.984375 -0.5625 1.894531 -0.359375 1.71875 -0.203125 C 1.550781 -0.046875 1.320312 0.03125 1.03125 0.03125 Z M 1.03125 0.03125 "/></g></g></g><g fill="#231f20" fill-opacity="1"><g transform="translate(28.250271, 35.473806)"><g><path d="M 2 0 L 0.96875 0 C 0.9375 0 0.921875 -0.015625 0.921875 -0.046875 L 0.921875 -0.21875 C 0.921875 -0.25 0.9375 -0.265625 0.96875 -0.265625 L 1.375 -0.265625 L 1.375 -0.8125 L 0.1875 -0.8125 C 0.15625 -0.8125 0.140625 -0.828125 0.140625 -0.859375 L 0.140625 -1 C 0.140625 -1.03125 0.15625 -1.066406 0.1875 -1.109375 L 1.3125 -2.5 C 1.351562 -2.550781 1.394531 -2.578125 1.4375 -2.578125 L 1.640625 -2.578125 C 1.671875 -2.578125 1.6875 -2.5625 1.6875 -2.53125 L 1.6875 -1.0625 L 1.96875 -1.0625 C 2 -1.0625 2.015625 -1.046875 2.015625 -1.015625 L 2.015625 -0.859375 C 2.015625 -0.828125 2 -0.8125 1.96875 -0.8125 L 1.6875 -0.8125 L 1.6875 -0.265625 L 2 -0.265625 C 2.03125 -0.265625 2.046875 -0.25 2.046875 -0.21875 L 2.046875 -0.046875 C 2.046875 -0.015625 2.03125 0 2 0 Z M 1.375 -1.0625 L 1.375 -2.1875 L 0.46875 -1.0625 Z M 1.375 -1.0625 "/></g></g></g><g fill="#231f20" fill-opacity="1"><g transform="translate(30.439065, 35.473806)"><g><path d="M 1.546875 -1.390625 C 1.617188 -1.390625 1.71875 -1.34375 1.84375 -1.25 C 1.894531 -1.207031 1.941406 -1.140625 1.984375 -1.046875 C 2.023438 -0.953125 2.046875 -0.847656 2.046875 -0.734375 C 2.046875 -0.515625 1.957031 -0.332031 1.78125 -0.1875 C 1.601562 -0.0390625 1.375 0.03125 1.09375 0.03125 C 0.8125 0.03125 0.582031 -0.0390625 0.40625 -0.1875 C 0.226562 -0.332031 0.140625 -0.515625 0.140625 -0.734375 C 0.140625 -0.847656 0.160156 -0.953125 0.203125 -1.046875 C 0.242188 -1.140625 0.289062 -1.207031 0.34375 -1.25 C 0.457031 -1.34375 0.554688 -1.390625 0.640625 -1.390625 C 0.566406 -1.390625 0.476562 -1.4375 0.375 -1.53125 C 0.269531 -1.625 0.21875 -1.753906 0.21875 -1.921875 C 0.21875 -2.097656 0.289062 -2.253906 0.4375 -2.390625 C 0.582031 -2.523438 0.800781 -2.59375 1.09375 -2.59375 C 1.382812 -2.601562 1.601562 -2.535156 1.75 -2.390625 C 1.894531 -2.253906 1.96875 -2.097656 1.96875 -1.921875 C 1.96875 -1.835938 1.945312 -1.757812 1.90625 -1.6875 C 1.875 -1.613281 1.832031 -1.554688 1.78125 -1.515625 C 1.6875 -1.429688 1.609375 -1.390625 1.546875 -1.390625 Z M 1.140625 -1.234375 L 1.046875 -1.234375 C 0.859375 -1.234375 0.710938 -1.191406 0.609375 -1.109375 C 0.503906 -1.023438 0.453125 -0.90625 0.453125 -0.75 C 0.453125 -0.601562 0.507812 -0.484375 0.625 -0.390625 C 0.75 -0.304688 0.90625 -0.265625 1.09375 -0.265625 C 1.28125 -0.265625 1.429688 -0.304688 1.546875 -0.390625 C 1.660156 -0.484375 1.71875 -0.601562 1.71875 -0.75 C 1.71875 -0.90625 1.664062 -1.023438 1.5625 -1.109375 C 1.46875 -1.191406 1.328125 -1.234375 1.140625 -1.234375 Z M 1.640625 -1.890625 C 1.640625 -2.015625 1.59375 -2.113281 1.5 -2.1875 C 1.40625 -2.269531 1.269531 -2.3125 1.09375 -2.3125 C 0.914062 -2.3125 0.78125 -2.269531 0.6875 -2.1875 C 0.59375 -2.113281 0.546875 -2.015625 0.546875 -1.890625 C 0.546875 -1.804688 0.5625 -1.734375 0.59375 -1.671875 C 0.632812 -1.617188 0.679688 -1.578125 0.734375 -1.546875 C 0.847656 -1.492188 0.945312 -1.46875 1.03125 -1.46875 C 1.125 -1.46875 1.195312 -1.472656 1.25 -1.484375 C 1.3125 -1.492188 1.375 -1.515625 1.4375 -1.546875 C 1.5 -1.578125 1.546875 -1.617188 1.578125 -1.671875 C 1.617188 -1.734375 1.640625 -1.804688 1.640625 -1.890625 Z M 1.640625 -1.890625 "/></g></g></g><g fill="#231f20" fill-opacity="1"><g transform="translate(32.62786, 35.473806)"><g><path d="M 1.984375 0 L 0.1875 0 C 0.15625 0 0.140625 -0.015625 0.140625 -0.046875 L 0.140625 -0.15625 C 0.140625 -0.300781 0.164062 -0.429688 0.21875 -0.546875 C 0.28125 -0.660156 0.351562 -0.753906 0.4375 -0.828125 C 0.53125 -0.898438 0.628906 -0.960938 0.734375 -1.015625 C 0.835938 -1.078125 0.941406 -1.132812 1.046875 -1.1875 C 1.160156 -1.238281 1.265625 -1.289062 1.359375 -1.34375 C 1.554688 -1.46875 1.65625 -1.625 1.65625 -1.8125 C 1.65625 -1.945312 1.601562 -2.0625 1.5 -2.15625 C 1.394531 -2.257812 1.25 -2.3125 1.0625 -2.3125 C 0.882812 -2.3125 0.742188 -2.257812 0.640625 -2.15625 C 0.535156 -2.0625 0.484375 -1.941406 0.484375 -1.796875 C 0.484375 -1.765625 0.46875 -1.75 0.4375 -1.75 L 0.203125 -1.75 C 0.171875 -1.75 0.15625 -1.765625 0.15625 -1.796875 C 0.15625 -2.015625 0.234375 -2.203125 0.390625 -2.359375 C 0.546875 -2.523438 0.769531 -2.609375 1.0625 -2.609375 C 1.351562 -2.609375 1.578125 -2.53125 1.734375 -2.375 C 1.898438 -2.226562 1.984375 -2.050781 1.984375 -1.84375 C 1.984375 -1.695312 1.945312 -1.566406 1.875 -1.453125 C 1.800781 -1.335938 1.707031 -1.242188 1.59375 -1.171875 C 1.488281 -1.109375 1.375 -1.039062 1.25 -0.96875 C 1.125 -0.894531 1.003906 -0.832031 0.890625 -0.78125 C 0.785156 -0.726562 0.691406 -0.65625 0.609375 -0.5625 C 0.535156 -0.476562 0.492188 -0.378906 0.484375 -0.265625 L 1.703125 -0.265625 L 1.703125 -0.53125 C 1.703125 -0.5625 1.71875 -0.578125 1.75 -0.578125 L 1.984375 -0.578125 C 2.015625 -0.578125 2.03125 -0.5625 2.03125 -0.53125 L 2.03125 -0.046875 C 2.03125 -0.015625 2.015625 0 1.984375 0 Z M 1.984375 0 "/></g></g></g><g fill="#231f20" fill-opacity="1"><g transform="translate(34.795053, 35.473806)"><g><path d="M 1.078125 0 L 0.859375 0 C 0.828125 0 0.8125 -0.015625 0.8125 -0.046875 C 0.8125 -0.335938 0.835938 -0.585938 0.890625 -0.796875 C 0.953125 -1.015625 1.023438 -1.1875 1.109375 -1.3125 C 1.191406 -1.4375 1.269531 -1.546875 1.34375 -1.640625 C 1.550781 -1.867188 1.65625 -2.097656 1.65625 -2.328125 L 0.453125 -2.328125 L 0.453125 -2.078125 C 0.453125 -2.046875 0.4375 -2.03125 0.40625 -2.03125 L 0.1875 -2.03125 C 0.15625 -2.03125 0.140625 -2.046875 0.140625 -2.078125 L 0.140625 -2.5625 C 0.140625 -2.59375 0.15625 -2.609375 0.1875 -2.609375 L 1.96875 -2.609375 C 2 -2.609375 2.015625 -2.59375 2.015625 -2.5625 L 2.015625 -2.4375 C 2.015625 -2.1875 1.953125 -1.972656 1.828125 -1.796875 C 1.773438 -1.722656 1.71875 -1.644531 1.65625 -1.5625 C 1.59375 -1.476562 1.53125 -1.390625 1.46875 -1.296875 C 1.40625 -1.210938 1.347656 -1.113281 1.296875 -1 C 1.179688 -0.75 1.125 -0.429688 1.125 -0.046875 C 1.125 -0.015625 1.109375 0 1.078125 0 Z M 1.078125 0 "/></g></g></g><g fill="#231f20" fill-opacity="1"><g transform="translate(36.947846, 35.473806)"><g><path d="M 1.03125 0.03125 C 0.90625 0.03125 0.800781 0.0195312 0.71875 0 C 0.644531 -0.03125 0.585938 -0.0507812 0.546875 -0.0625 C 0.503906 -0.0820312 0.46875 -0.101562 0.4375 -0.125 C 0.40625 -0.15625 0.375 -0.175781 0.34375 -0.1875 C 0.320312 -0.207031 0.296875 -0.226562 0.265625 -0.25 C 0.242188 -0.28125 0.226562 -0.300781 0.21875 -0.3125 C 0.207031 -0.332031 0.191406 -0.347656 0.171875 -0.359375 C 0.160156 -0.378906 0.148438 -0.390625 0.140625 -0.390625 C 0.140625 -0.398438 0.140625 -0.410156 0.140625 -0.421875 C 0.140625 -0.429688 0.144531 -0.441406 0.15625 -0.453125 L 0.3125 -0.59375 C 0.332031 -0.613281 0.347656 -0.617188 0.359375 -0.609375 C 0.367188 -0.597656 0.390625 -0.570312 0.421875 -0.53125 C 0.460938 -0.5 0.488281 -0.472656 0.5 -0.453125 C 0.519531 -0.441406 0.550781 -0.421875 0.59375 -0.390625 C 0.632812 -0.359375 0.671875 -0.335938 0.703125 -0.328125 C 0.804688 -0.285156 0.914062 -0.265625 1.03125 -0.265625 C 1.226562 -0.265625 1.378906 -0.3125 1.484375 -0.40625 C 1.597656 -0.507812 1.65625 -0.648438 1.65625 -0.828125 C 1.65625 -1.015625 1.597656 -1.160156 1.484375 -1.265625 C 1.367188 -1.367188 1.21875 -1.421875 1.03125 -1.421875 C 0.882812 -1.421875 0.742188 -1.398438 0.609375 -1.359375 C 0.460938 -1.316406 0.382812 -1.296875 0.375 -1.296875 C 0.320312 -1.296875 0.296875 -1.320312 0.296875 -1.375 L 0.296875 -2.546875 C 0.296875 -2.578125 0.3125 -2.59375 0.34375 -2.59375 L 1.78125 -2.59375 C 1.8125 -2.59375 1.828125 -2.578125 1.828125 -2.546875 L 1.828125 -2.078125 C 1.828125 -2.046875 1.8125 -2.03125 1.78125 -2.03125 L 1.5625 -2.03125 C 1.53125 -2.03125 1.515625 -2.046875 1.515625 -2.078125 L 1.515625 -2.3125 L 0.625 -2.3125 L 0.625 -1.59375 C 0.625 -1.59375 0.640625 -1.59375 0.671875 -1.59375 C 0.703125 -1.601562 0.734375 -1.613281 0.765625 -1.625 C 0.867188 -1.644531 0.976562 -1.65625 1.09375 -1.65625 C 1.375 -1.65625 1.59375 -1.578125 1.75 -1.421875 C 1.90625 -1.273438 1.984375 -1.070312 1.984375 -0.8125 C 1.984375 -0.5625 1.894531 -0.359375 1.71875 -0.203125 C 1.550781 -0.046875 1.320312 0.03125 1.03125 0.03125 Z M 1.03125 0.03125 "/></g></g></g></svg>